<svg xmlns="http://www.w3.org/2000/svg" width="32" height="32" viewBox="0 0 32 32" fill="none">
  <path d="M16 2C8.268 2 2 8.268 2 16C2 23.732 8.268 30 16 30C23.732 30 30 23.732 30 16C30 8.268 23.732 2 16 2Z" fill="url(#paint0_linear)"/>
  <path d="M22 10H10V12H22V10Z" fill="white"/>
  <path d="M22 14H10V16H22V14Z" fill="white"/>
  <path d="M22 18H10V20H22V18Z" fill="white"/>
  <path d="M16 22H10V24H16V22Z" fill="white"/>
  <path d="M24 16L20 12V20L24 16Z" fill="white"/>
  <defs>
    <linearGradient id="paint0_linear" x1="2" y1="16" x2="30" y2="16" gradientUnits="userSpaceOnUse">
      <stop stop-color="#3B82F6"/>
      <stop offset="1" stop-color="#60A5FA"/>
    </linearGradient>
  </defs>
</svg>

